HIERARCHY
ROOT Hips
{
	OFFSET 0.000000 0.000000 0.000000
	CHANNELS 6 Xposition Yposition Zposition Xrotation Yrotation Zrotation
	JOINT LeftUpLeg_virtual
	{
		OFFSET 0.000000 0.000000 0.000000
		CHANNELS 3 Xrotation Yrotation Zrotation
		JOINT LeftUpLeg
		{
			OFFSET 10.205400 -3.823500 0.155100
			CHANNELS 3 Xrotation Yrotation Zrotation
			JOINT LeftLeg
			{
				OFFSET 0.708757 -12.982077 0.567790
				CHANNELS 3 Xrotation Yrotation Zrotation
				JOINT LeftFoot
				{
					OFFSET -0.708756 -10.717838 -2.184338
					CHANNELS 3 Xrotation Yrotation Zrotation
					JOINT LeftToeBase
					{
						OFFSET 0.108149 -7.191104 7.560241
						CHANNELS 3 Xrotation Yrotation Zrotation
						JOINT LeftToe_End
						{
							OFFSET 0.070230 0.081724 4.490308
							CHANNELS 3 Xrotation Yrotation Zrotation
							End Site
							{
								OFFSET 0 0 0
							}
						}
					}
				}
			}
		}
	}
	JOINT RightUpLeg_virtual
	{
		OFFSET 0.000000 0.000000 0.000000
		CHANNELS 3 Xrotation Yrotation Zrotation
		JOINT RightUpLeg
		{
			OFFSET -10.205400 -3.823500 0.005500
			CHANNELS 3 Xrotation Yrotation Zrotation
			JOINT RightLeg
			{
				OFFSET -0.708756 -12.982134 0.610632
				CHANNELS 3 Xrotation Yrotation Zrotation
				JOINT RightFoot
				{
					OFFSET 0.708754 -10.717769 -1.945823
					CHANNELS 3 Xrotation Yrotation Zrotation
					JOINT RightToeBase
					{
						OFFSET -0.108140 -7.191069 7.372968
						CHANNELS 3 Xrotation Yrotation Zrotation
						JOINT RightToe_End
						{
							OFFSET -0.070227 0.081735 4.479403
							CHANNELS 3 Xrotation Yrotation Zrotation
							End Site
							{
								OFFSET 0 0 0
							}
						}
					}
				}
			}
		}
	}
	JOINT Spine_virtual
	{
		OFFSET 0.000000 0.000000 0.000000
		CHANNELS 3 Xrotation Yrotation Zrotation
		JOINT Spine
		{
			OFFSET 0.000000 6.876099 0.125700
			CHANNELS 3 Xrotation Yrotation Zrotation
			JOINT Spine1
			{
				OFFSET 0.000000 5.730043 0.104720
				CHANNELS 3 Xrotation Yrotation Zrotation
				JOINT Spine1_split
				{
					OFFSET 0.000000 5.730043 0.104720
					CHANNELS 3 Xrotation Yrotation Zrotation
					JOINT Spine2
					{
						OFFSET 0.000000 5.730043 0.104720
						CHANNELS 3 Xrotation Yrotation Zrotation
						JOINT Neck_virtual
						{
							OFFSET 0.000000 0.000000 0.000000
							CHANNELS 3 Xrotation Yrotation Zrotation
							JOINT Neck
							{
								OFFSET 0.000000 10.314075 0.188496
								CHANNELS 3 Xrotation Yrotation Zrotation
								JOINT Head
								{
									OFFSET 0.000000 7.643700 -2.377400
									CHANNELS 3 Xrotation Yrotation Zrotation
									JOINT HeadTop_End
									{
										OFFSET 0.000000 43.788605 -13.619600
										CHANNELS 3 Xrotation Yrotation Zrotation
										End Site
										{
											OFFSET 0 0 0
										}
									}
								}
							}
						}
						JOINT LeftShoulder_virtual
						{
							OFFSET 0.000000 0.000000 0.000000
							CHANNELS 3 Xrotation Yrotation Zrotation
							JOINT LeftShoulder
							{
								OFFSET 2.196100 4.412489 0.087492
								CHANNELS 3 Xrotation Yrotation Zrotation
								JOINT LeftShoulder_split
								{
									OFFSET 2.196100 4.412489 0.087492
									CHANNELS 3 Xrotation Yrotation Zrotation
									JOINT LeftArm
									{
										OFFSET 8.771219 -2.981674 -0.026999
										CHANNELS 3 Xrotation Yrotation Zrotation
										JOINT LeftForeArm
										{
											OFFSET 8.512804 0.000000 -0.000000
											CHANNELS 3 Xrotation Yrotation Zrotation
											JOINT LeftHand
											{
												OFFSET 18.484802 0.000000 -0.000000
												CHANNELS 3 Xrotation Yrotation Zrotation
												End Site
												{
													OFFSET 0 0 0
												}
											}
										}
									}
								}
							}
						}
						JOINT RightShoulder_virtual
						{
							OFFSET 0.000000 0.000000 0.000000
							CHANNELS 3 Xrotation Yrotation Zrotation
							JOINT RightShoulder
							{
								OFFSET -2.196100 4.412496 0.070690
								CHANNELS 3 Xrotation Yrotation Zrotation
								JOINT RightShoulder_split
								{
									OFFSET -2.196100 4.412496 0.070690
									CHANNELS 3 Xrotation Yrotation Zrotation
									JOINT RightArm
									{
										OFFSET -8.771282 -2.981682 -0.094208
										CHANNELS 3 Xrotation Yrotation Zrotation
										JOINT RightForeArm
										{
											OFFSET -8.494598 0.000000 0.000000
											CHANNELS 3 Xrotation Yrotation Zrotation
											JOINT RightHand
											{
												OFFSET -18.483803 0.000000 0.000001
												CHANNELS 3 Xrotation Yrotation Zrotation
												End Site
												{
													OFFSET 0 0 0
												}
											}
										}
									}
								}
							}
						}
					}
				}
			}
		}
	}
}
MOTION
Frames: 9
Frame Time: 0.03333333
-25.217190 9.286036 -0.241745 0.000000 0.000000 0.000000 -47.230649 7.335277 102.956072 -34.516846 14.620071 -5.058155 73.966024 1.188637 -13.621537 -19.567372 -14.005413 2.567670 -6.833413 -3.598541 8.642554 0.000000 0.000000 0.000000 -57.130144 4.876156 107.034959 -49.655489 -18.173646 -33.469699 126.916567 2.210811 1.693618 -16.594525 0.723784 19.248586 13.042175 -2.622040 4.127467 0.000000 0.000000 0.000000 -49.101936 4.732696 98.177392 14.377374 -1.129566 -9.677859 17.779537 0.464390 -2.830490 0.132335 1.605816 -0.765603 0.000000 0.000000 0.000000 12.320434 1.179769 -2.433708 43.972683 7.413457 -10.944548 -4.072768 11.990458 -1.497174 0.000000 0.000000 0.000000 15.377665 2.077462 -2.708888 0.364049 -3.375669 -12.815424 0.491716 -12.498577 -0.175258 -56.247953 -7.154741 -21.961312 46.551294 -13.463216 11.288889 0.000000 0.000000 0.000000 16.432756 2.018554 -3.253917 5.268960 21.220530 -10.742316 -9.948467 -7.424784 2.882693 -22.421440 -4.611754 16.165745 22.793615 47.977807 -14.741826 0.000000 0.000000 0.000000 
-26.983105 7.970400 0.194778 0.000000 0.000000 0.000000 -50.661607 -2.536107 109.300082 -27.536372 6.133267 -11.157179 72.062806 5.170916 -10.587583 -21.814393 -7.226251 0.968886 -9.004644 -3.295847 7.004885 0.000000 0.000000 0.000000 -58.940851 -5.451122 112.524867 -48.809024 -14.083682 -37.643307 125.907803 -0.581133 4.157160 -17.977321 -2.862687 21.100724 10.525852 -3.273623 4.657902 0.000000 0.000000 0.000000 -52.853315 -3.697550 103.349894 15.190967 -2.002671 -9.635734 17.700391 -0.033468 -1.722744 0.456396 2.709360 -0.374127 0.000000 0.000000 0.000000 11.974548 0.494824 -1.326583 40.508284 4.362599 -8.203425 -4.679023 4.501286 -1.324604 0.000000 0.000000 0.000000 15.065466 1.493644 -1.361928 0.071300 -3.692921 -16.958009 -1.090694 -11.799778 -0.290671 -60.211007 -0.938109 -25.462595 47.915140 -15.934761 13.036533 0.000000 0.000000 0.000000 16.495407 1.385402 -2.123080 5.079530 21.820206 -10.139280 -9.510807 -7.618743 2.697165 -18.938808 -3.259026 14.946243 26.554939 45.339533 -19.048423 0.000000 0.000000 0.000000 
-28.938711 7.384823 0.435102 0.000000 0.000000 0.000000 -53.537236 -10.853409 112.709951 -23.758600 -1.759204 -12.695387 69.227376 8.887574 -8.296281 -16.732381 0.248185 -2.729358 -9.465588 -2.634904 5.184015 0.000000 0.000000 0.000000 -59.693647 -13.889661 115.017613 -44.290078 -12.314559 -42.343225 120.667163 -3.013779 6.044280 -17.078844 -4.096633 25.413293 5.969161 -2.970267 3.203205 0.000000 0.000000 0.000000 -56.273228 -10.501720 106.209011 16.110219 -2.393667 -8.651068 16.465209 -0.115864 -0.282123 -0.701531 2.799916 0.854669 0.000000 0.000000 0.000000 10.682774 0.269083 0.006616 35.324704 1.109350 -5.330137 -8.225441 -3.968185 -1.231346 0.000000 0.000000 0.000000 13.525351 1.351758 0.318633 -0.240350 -3.644156 -20.007415 -2.333966 -10.890635 -1.572471 -63.461869 10.905086 -25.842915 50.901186 -20.920116 17.964460 0.000000 0.000000 0.000000 15.186429 1.083442 -0.716834 5.140813 22.189169 -9.895097 -10.111671 -7.979079 2.832621 -16.822213 2.150673 12.762192 24.667829 43.250892 -19.024613 0.000000 0.000000 0.000000 
-30.929403 7.434618 0.375685 0.000000 0.000000 0.000000 -57.087435 -17.021581 113.315987 -22.123331 -7.133622 -9.625058 65.893922 11.918921 -6.969866 -3.654496 5.995864 -9.187270 -7.639829 -1.814779 3.285063 0.000000 0.000000 0.000000 -61.400334 -19.962589 114.644780 -37.569053 -13.242723 -45.680923 109.999951 -5.443270 7.701570 -15.293922 -3.781560 29.831784 2.894205 -1.799304 0.661263 0.000000 0.000000 0.000000 -59.963119 -15.652297 106.751690 17.374729 -2.364474 -6.589621 14.493663 -0.147638 1.310320 -1.471569 2.124881 1.793618 0.000000 0.000000 0.000000 8.922957 0.192323 1.383029 29.149567 -1.810908 -2.799974 -13.685696 -11.675752 -1.907372 0.000000 0.000000 0.000000 11.304140 1.239439 2.119971 -0.511917 -3.798178 -21.389347 -3.098646 -9.936002 -3.387426 -67.110959 24.425211 -22.592717 56.412168 -26.522852 26.306907 0.000000 0.000000 0.000000 13.019147 0.810333 0.776925 5.404669 21.876975 -10.047733 -10.904616 -9.377467 3.630415 -16.758533 9.153009 10.638496 17.507211 40.381680 -14.834322 0.000000 0.000000 0.000000 
-32.831146 7.966507 -0.081377 0.000000 0.000000 0.000000 -61.358759 -20.975320 111.359083 -21.864286 -9.020243 -3.077188 62.844618 14.277813 -6.602910 12.990917 7.750450 -15.820750 -4.784219 -1.144161 1.793019 0.000000 0.000000 0.000000 -65.203458 -23.276289 112.238006 -30.249856 -16.067849 -46.684193 94.918954 -7.669201 8.825349 -12.547359 -2.383669 32.220045 3.300667 -0.265187 -1.739472 0.000000 0.000000 0.000000 -63.887226 -19.303486 105.416607 19.046946 -1.942101 -3.578707 12.414814 -0.407341 2.807212 -2.174057 1.902276 2.073413 0.000000 0.000000 0.000000 7.253760 -0.000080 2.676854 23.318662 -3.844948 -0.560301 -19.730403 -16.902778 -3.247193 0.000000 0.000000 0.000000 9.047110 0.901257 3.770989 -0.692777 -4.124947 -21.098540 -3.649726 -9.490394 -4.900329 -71.251919 34.898865 -17.161675 64.335307 -29.899925 37.045881 0.000000 0.000000 0.000000 10.611359 0.333862 2.094002 5.751835 20.509222 -10.701147 -11.890080 -11.712228 5.019238 -17.693293 14.901767 9.513099 7.361337 35.434161 -8.287029 0.000000 0.000000 0.000000 
-34.629974 8.704817 -0.534584 0.000000 0.000000 0.000000 -66.049350 -22.387436 107.834767 -22.296396 -7.960532 4.678242 59.511595 16.329717 -6.586287 25.677685 6.479299 -19.109203 -2.343938 -0.832222 1.126963 0.000000 0.000000 0.000000 -70.986306 -23.927029 109.156778 -23.981523 -19.262052 -45.657520 78.726755 -9.799347 9.716143 -7.906183 -0.968866 31.863174 5.949503 0.796450 -3.041309 0.000000 0.000000 0.000000 -67.511386 -21.743233 102.560379 20.953960 -1.301163 -0.073802 10.659878 -0.921392 3.934173 -1.982587 1.942186 1.748709 0.000000 0.000000 0.000000 5.950182 -0.410489 3.640497 18.432065 -5.048288 1.588593 -24.948733 -19.315886 -4.398693 0.000000 0.000000 0.000000 7.318729 0.295278 4.998526 -0.765467 -4.900229 -19.415824 -3.551911 -8.706621 -6.011195 -73.755490 40.171358 -12.354671 71.510312 -29.071327 46.537648 0.000000 0.000000 0.000000 8.529648 -0.365427 3.064619 5.994109 18.206243 -11.465693 -12.466211 -14.362691 6.334657 -18.770220 18.206633 9.762291 -2.639001 28.541972 -2.041304 0.000000 0.000000 0.000000 
-36.258598 9.332113 -0.884285 0.000000 0.000000 0.000000 -70.817642 -21.658170 104.319207 -23.082232 -4.890471 11.629826 54.792457 17.568138 -6.019896 30.099196 4.108612 -18.397051 -1.902810 -0.956139 1.598372 0.000000 0.000000 0.000000 -77.455663 -23.367800 106.608707 -20.711599 -21.428431 -44.291396 65.966752 -11.428073 10.237328 -1.178809 -0.153097 30.202868 7.752711 0.883236 -3.188441 0.000000 0.000000 0.000000 -70.892002 -23.169776 99.334808 22.630264 -0.712019 3.217923 9.316911 -1.572946 4.579642 -0.876998 2.406198 0.615762 0.000000 0.000000 0.000000 4.984046 -0.951629 4.190833 15.217629 -5.932674 3.971831 -28.637802 -19.429236 -4.591064 0.000000 0.000000 0.000000 6.339551 -0.474799 5.681169 -0.666543 -5.917216 -16.686330 -2.302320 -7.944354 -6.514014 -72.690630 40.476978 -11.009763 74.449950 -24.895370 51.332799 0.000000 0.000000 0.000000 7.163111 -1.078390 3.614312 6.043768 15.012517 -12.634834 -12.488705 -16.181468 7.242840 -19.674625 18.429589 11.007105 -10.571139 21.020648 2.289969 0.000000 0.000000 0.000000 
-37.718033 9.714674 -1.010841 0.000000 0.000000 0.000000 -74.689252 -19.564650 101.925479 -24.040830 -1.414991 16.367621 48.792884 17.111366 -4.752430 26.955413 1.049199 -15.873868 -3.170026 -1.451238 2.958246 0.000000 0.000000 0.000000 -83.218034 -22.360494 105.055488 -20.537197 -22.597283 -44.198854 58.714806 -12.486236 10.340125 6.896172 0.024490 28.089766 6.466269 0.187112 -2.540913 0.000000 0.000000 0.000000 -73.324089 -23.510513 96.795945 23.565339 -0.306998 5.776417 8.332997 -2.107812 4.826046 -0.443814 3.458205 -0.428625 0.000000 0.000000 0.000000 4.128386 -1.425650 4.409635 13.751891 -7.126880 6.774806 -30.642015 -18.599952 -3.669903 0.000000 0.000000 0.000000 5.880060 -1.116571 5.918306 -0.501789 -6.790268 -13.541008 -0.740991 -6.879825 -6.671797 -68.191796 37.154382 -13.081089 73.182458 -19.716545 51.929344 0.000000 0.000000 0.000000 6.383269 -1.520588 3.809544 5.830410 11.509188 -14.306316 -12.682799 -16.291231 6.881978 -20.143338 16.205997 11.995926 -16.234975 14.655142 4.630440 0.000000 0.000000 0.000000 
-38.950378 9.774649 -0.855825 0.000000 0.000000 0.000000 -77.713715 -16.558781 101.497608 -24.345431 1.386197 18.441280 42.330313 15.093688 -3.230516 19.231511 -2.106011 -12.955744 -4.537913 -2.119556 4.182321 0.000000 0.000000 0.000000 -87.148153 -21.339487 104.264757 -22.838448 -23.090571 -46.077802 56.681144 -13.326329 10.195014 14.293086 -0.440917 26.225237 3.025093 -0.991838 -1.871120 0.000000 0.000000 0.000000 -74.831259 -22.920327 95.536451 23.471119 -0.292233 7.209445 7.433096 -2.373259 4.831607 -0.205791 4.168973 -1.133360 0.000000 0.000000 0.000000 3.212070 -1.668102 4.359318 13.639917 -8.903629 9.818536 -31.214122 -18.013169 -2.032709 0.000000 0.000000 0.000000 5.568980 -1.475418 5.854001 -0.367985 -7.351447 -10.587764 0.639443 -5.405950 -6.426034 -62.725677 32.242871 -15.918113 68.918227 -15.576412 50.080579 0.000000 0.000000 0.000000 5.911180 -1.568370 3.843925 5.400538 8.169037 -16.463396 -12.943128 -15.182768 5.642123 -21.033129 12.354640 12.338714 -20.228831 10.766980 5.547934 0.000000 0.000000 0.000000 
